<svg width="122" height="27" viewBox="0 0 122 27" fill="none" xmlns="http://www.w3.org/2000/svg">
<path d="M9.19467 3.92798C9.46221 3.10457 10.6271 3.10457 10.8946 3.92798L12.6532 9.34017C12.7728 9.7084 13.116 9.95772 13.5032 9.95772H19.1939C20.0597 9.95772 20.4196 11.0656 19.7192 11.5745L15.1153 14.9194C14.8021 15.147 14.671 15.5504 14.7906 15.9186L16.5492 21.3308C16.8167 22.1542 15.8743 22.8389 15.1739 22.33L10.57 18.9851C10.2567 18.7575 9.83258 18.7575 9.51934 18.9851L4.91545 22.33C4.21502 22.8389 3.27261 22.1542 3.54015 21.3308L5.29867 15.9186C5.41832 15.5504 5.28725 15.147 4.97401 14.9194L0.370122 11.5745C-0.330307 11.0656 0.0296666 9.95772 0.895444 9.95772H6.58616C6.97334 9.95772 7.3165 9.7084 7.43614 9.34017L9.19467 3.92798Z" fill="#FFA722"/>
<path d="M58.7934 4.03399C59.0551 3.19863 60.2373 3.19863 60.4991 4.03399L62.1587 9.33119C62.2755 9.70398 62.6209 9.95771 63.0116 9.95771H68.4497C69.3076 9.95771 69.6727 11.049 68.9875 11.5652L64.5327 14.9217C64.2308 15.1492 64.1047 15.542 64.2177 15.9027L65.906 21.2911C66.1657 22.1202 65.2093 22.7949 64.5153 22.2721L60.184 19.0087C59.8656 18.7688 59.4268 18.7688 59.1084 19.0087L54.7771 22.2721C54.0831 22.7949 53.1267 22.1202 53.3864 21.2911L55.0747 15.9027C55.1877 15.542 55.0616 15.1492 54.7597 14.9217L50.3049 11.5652C49.6197 11.049 49.9848 9.95771 50.8427 9.95771H56.2808C56.6715 9.95771 57.0169 9.70398 57.1337 9.33119L58.7934 4.03399Z" fill="#FFA722"/>
<path d="M107.591 9.64918L109.249 4.54805L110.906 9.64918C111.16 10.4294 111.887 10.9577 112.707 10.9577H118.071L113.732 14.1104C113.068 14.5926 112.79 15.4474 113.044 16.2276L114.701 21.3288L110.362 18.1761C109.698 17.6939 108.799 17.6939 108.136 18.1761L103.796 21.3288L105.454 16.2276C105.707 15.4474 105.43 14.5926 104.766 14.1104L100.427 10.9577H105.79C106.611 10.9577 107.338 10.4294 107.591 9.64918Z" stroke="#FFA722" stroke-width="2"/>
<path d="M34.2191 3.92798C34.4866 3.10457 35.6515 3.10457 35.9191 3.92798L37.6776 9.34017C37.7972 9.7084 38.1404 9.95772 38.5276 9.95772H44.2183C45.0841 9.95772 45.444 11.0656 44.7436 11.5745L40.1397 14.9194C39.8265 15.147 39.6954 15.5504 39.8151 15.9186L41.5736 21.3308C41.8411 22.1542 40.8987 22.8389 40.1983 22.33L35.5944 18.9851C35.2812 18.7575 34.857 18.7575 34.5438 18.9851L29.9399 22.33C29.2394 22.8389 28.297 22.1542 28.5646 21.3308L30.3231 15.9186C30.4427 15.5504 30.3117 15.147 29.9984 14.9194L25.3945 11.5745C24.6941 11.0656 25.0541 9.95772 25.9199 9.95772H31.6106C31.9978 9.95772 32.3409 9.7084 32.4606 9.34017L34.2191 3.92798Z" fill="#FFA722"/>
<path d="M83.3744 3.92798C83.6419 3.10457 84.8068 3.10457 85.0743 3.92798L86.8329 9.34017C86.9525 9.7084 87.2957 9.95772 87.6828 9.95772H93.3736C94.2393 9.95772 94.5993 11.0656 93.8989 11.5745L89.295 14.9194C88.9818 15.147 88.8507 15.5504 88.9703 15.9186L90.7289 21.3308C90.9964 22.1542 90.054 22.8389 89.3535 22.33L84.7497 18.9851C84.4364 18.7575 84.0123 18.7575 83.699 18.9851L79.0951 22.33C78.3947 22.8389 77.4523 22.1542 77.7198 21.3308L79.4784 15.9186C79.598 15.5504 79.4669 15.147 79.1537 14.9194L74.5498 11.5745C73.8494 11.0656 74.2094 9.95772 75.0751 9.95772H80.7658C81.153 9.95772 81.4962 9.7084 81.6158 9.34017L83.3744 3.92798Z" fill="#FFA722"/>
<mask id="mask0_1_2748" style="mask-type:alpha" maskUnits="userSpaceOnUse" x="99" y="3" width="21" height="20">
<path d="M108.289 3.90606C108.588 2.98475 109.892 2.98474 110.191 3.90605L111.826 8.93986C111.96 9.35188 112.344 9.63084 112.778 9.63084H118.07C119.039 9.63084 119.442 10.8705 118.658 11.4399L114.376 14.5509C114.026 14.8056 113.879 15.2569 114.013 15.669L115.648 20.7028C115.948 21.6241 114.893 22.3902 114.11 21.8208L109.828 18.7097C109.477 18.4551 109.003 18.4551 108.652 18.7097L104.37 21.8208C103.586 22.3902 102.532 21.6241 102.831 20.7028L104.467 15.669C104.601 15.2569 104.454 14.8056 104.103 14.5509L99.8215 11.4399C99.0378 10.8705 99.4405 9.63084 100.409 9.63084H105.702C106.135 9.63084 106.519 9.35188 106.653 8.93986L108.289 3.90606Z" fill="#FFA722"/>
</mask>
<g mask="url(#mask0_1_2748)">
<rect x="99.1738" y="1.47021" width="9.82044" height="22.587" rx="1" fill="#FFA722"/>
</g>
</svg>
