<svg width="143" height="143" viewBox="0 0 143 143" fill="none" xmlns="http://www.w3.org/2000/svg">
<circle cx="71.3935" cy="71.4999" r="71.3935" fill="#37393F"/>
<path d="M57.9153 2.91886C66.9215 1.14868 76.1882 1.16974 85.1863 2.98084C94.1844 4.79195 102.738 8.35762 110.358 13.4743C117.978 18.5909 124.515 25.1584 129.597 32.8016C134.679 40.4449 138.206 49.0143 139.976 58.0205C141.746 67.0267 141.725 76.2934 139.914 85.2915C138.103 94.2896 134.538 102.843 129.421 110.463C124.304 118.083 117.737 124.621 110.094 129.703C102.45 134.785 93.8809 138.311 84.8746 140.082C75.8684 141.852 66.6017 141.831 57.6036 140.02C48.6055 138.208 40.0523 134.643 32.4322 129.526C24.8121 124.409 18.2745 117.842 13.1925 110.199C8.11055 102.555 4.5838 93.9861 2.81363 84.9799C1.04345 75.9736 1.06452 66.7069 2.87563 57.7088C4.68673 48.7107 8.25241 40.1575 13.3691 32.5374C18.4857 24.9173 25.0532 18.3797 32.6964 13.2977C40.3397 8.21577 48.9091 4.68902 57.9153 2.91885L57.9153 2.91886Z" stroke="#40DDB6" stroke-width="3" stroke-linecap="round" stroke-linejoin="round"/>
<path d="M48.3194 51.5402L43.5994 60.6402V65.5002H40.7994V60.6402L36.0594 51.5402H39.2194L42.2194 57.9202L45.1994 51.5402H48.3194ZM60.2342 59.7202C60.2342 60.1202 60.2075 60.4802 60.1542 60.8002H52.0542C52.1209 61.6002 52.4009 62.2269 52.8942 62.6802C53.3875 63.1336 53.9942 63.3602 54.7142 63.3602C55.7542 63.3602 56.4942 62.9136 56.9342 62.0202H59.9542C59.6342 63.0869 59.0209 63.9669 58.1142 64.6602C57.2075 65.3402 56.0942 65.6802 54.7742 65.6802C53.7075 65.6802 52.7475 65.4469 51.8942 64.9802C51.0542 64.5002 50.3942 63.8269 49.9142 62.9602C49.4475 62.0936 49.2142 61.0936 49.2142 59.9602C49.2142 58.8136 49.4475 57.8069 49.9142 56.9402C50.3809 56.0736 51.0342 55.4069 51.8742 54.9402C52.7142 54.4736 53.6809 54.2402 54.7742 54.2402C55.8275 54.2402 56.7675 54.4669 57.5942 54.9202C58.4342 55.3736 59.0809 56.0202 59.5342 56.8602C60.0009 57.6869 60.2342 58.6402 60.2342 59.7202ZM57.3342 58.9202C57.3209 58.2002 57.0609 57.6269 56.5542 57.2002C56.0475 56.7602 55.4275 56.5402 54.6942 56.5402C54.0009 56.5402 53.4142 56.7536 52.9342 57.1802C52.4675 57.5936 52.1809 58.1736 52.0742 58.9202H57.3342ZM61.5579 59.9202C61.5579 58.8002 61.7779 57.8069 62.2179 56.9402C62.6713 56.0736 63.2779 55.4069 64.0379 54.9402C64.8113 54.4736 65.6713 54.2402 66.6179 54.2402C67.4446 54.2402 68.1646 54.4069 68.7779 54.7402C69.4046 55.0736 69.9046 55.4936 70.2779 56.0002V54.4202H73.0979V65.5002H70.2779V63.8802C69.9179 64.4002 69.4179 64.8336 68.7779 65.1802C68.1513 65.5136 67.4246 65.6802 66.5979 65.6802C65.6646 65.6802 64.8113 65.4402 64.0379 64.9602C63.2779 64.4802 62.6713 63.8069 62.2179 62.9402C61.7779 62.0602 61.5579 61.0536 61.5579 59.9202ZM70.2779 59.9602C70.2779 59.2802 70.1446 58.7002 69.8779 58.2202C69.6113 57.7269 69.2513 57.3536 68.7979 57.1002C68.3446 56.8336 67.8579 56.7002 67.3379 56.7002C66.8179 56.7002 66.3379 56.8269 65.8979 57.0802C65.4579 57.3336 65.0979 57.7069 64.8179 58.2002C64.5513 58.6802 64.4179 59.2536 64.4179 59.9202C64.4179 60.5869 64.5513 61.1736 64.8179 61.6802C65.0979 62.1736 65.4579 62.5536 65.8979 62.8202C66.3513 63.0869 66.8313 63.2202 67.3379 63.2202C67.8579 63.2202 68.3446 63.0936 68.7979 62.8402C69.2513 62.5736 69.6113 62.2002 69.8779 61.7202C70.1446 61.2269 70.2779 60.6402 70.2779 59.9602ZM78.6326 56.1402C78.9926 55.5536 79.4593 55.0936 80.0326 54.7602C80.6193 54.4269 81.286 54.2602 82.0326 54.2602V57.2002H81.2926C80.4126 57.2002 79.746 57.4069 79.2926 57.8202C78.8526 58.2336 78.6326 58.9536 78.6326 59.9802V65.5002H75.8326V54.4202H78.6326V56.1402ZM93.6042 65.6802C92.5375 65.6802 91.5775 65.4469 90.7242 64.9802C89.8709 64.5002 89.1975 63.8269 88.7042 62.9602C88.2242 62.0936 87.9842 61.0936 87.9842 59.9602C87.9842 58.8269 88.2309 57.8269 88.7242 56.9602C89.2309 56.0936 89.9175 55.4269 90.7842 54.9602C91.6509 54.4802 92.6175 54.2402 93.6842 54.2402C94.7509 54.2402 95.7175 54.4802 96.5842 54.9602C97.4509 55.4269 98.1309 56.0936 98.6242 56.9602C99.1309 57.8269 99.3842 58.8269 99.3842 59.9602C99.3842 61.0936 99.1242 62.0936 98.6042 62.9602C98.0975 63.8269 97.4042 64.5002 96.5242 64.9802C95.6575 65.4469 94.6842 65.6802 93.6042 65.6802ZM93.6042 63.2402C94.1109 63.2402 94.5842 63.1202 95.0242 62.8802C95.4775 62.6269 95.8375 62.2536 96.1042 61.7602C96.3709 61.2669 96.5042 60.6669 96.5042 59.9602C96.5042 58.9069 96.2242 58.1002 95.6642 57.5402C95.1175 56.9669 94.4442 56.6802 93.6442 56.6802C92.8442 56.6802 92.1709 56.9669 91.6242 57.5402C91.0909 58.1002 90.8242 58.9069 90.8242 59.9602C90.8242 61.0136 91.0842 61.8269 91.6042 62.4002C92.1375 62.9602 92.8042 63.2402 93.6042 63.2402ZM106.518 56.7202H104.578V65.5002H101.738V56.7202H100.478V54.4202H101.738V53.8602C101.738 52.5002 102.125 51.5002 102.898 50.8602C103.671 50.2202 104.838 49.9202 106.398 49.9602V52.3202C105.718 52.3069 105.245 52.4202 104.978 52.6602C104.711 52.9002 104.578 53.3336 104.578 53.9602V54.4202H106.518V56.7202ZM49.4004 92.3402C50.6804 91.2736 51.7004 90.3869 52.4604 89.6802C53.2204 88.9602 53.8538 88.2136 54.3604 87.4402C54.8671 86.6669 55.1204 85.9069 55.1204 85.1602C55.1204 84.4802 54.9604 83.9469 54.6404 83.5602C54.3204 83.1736 53.8271 82.9802 53.1604 82.9802C52.4938 82.9802 51.9804 83.2069 51.6204 83.6602C51.2604 84.1002 51.0738 84.7069 51.0604 85.4802H48.3404C48.3938 83.8802 48.8671 82.6669 49.7604 81.8402C50.6671 81.0136 51.8138 80.6002 53.2004 80.6002C54.7204 80.6002 55.8871 81.0069 56.7004 81.8202C57.5138 82.6202 57.9204 83.6802 57.9204 85.0002C57.9204 86.0402 57.6404 87.0336 57.0804 87.9802C56.5204 88.9269 55.8804 89.7536 55.1604 90.4602C54.4404 91.1536 53.5004 91.9936 52.3404 92.9802H58.2404V95.3002H48.3604V93.2202L49.4004 92.3402ZM60.0048 88.0202C60.0048 85.7136 60.4182 83.9069 61.2448 82.6002C62.0848 81.2936 63.4715 80.6402 65.4048 80.6402C67.3382 80.6402 68.7182 81.2936 69.5448 82.6002C70.3848 83.9069 70.8048 85.7136 70.8048 88.0202C70.8048 90.3402 70.3848 92.1602 69.5448 93.4802C68.7182 94.8002 67.3382 95.4602 65.4048 95.4602C63.4715 95.4602 62.0848 94.8002 61.2448 93.4802C60.4182 92.1602 60.0048 90.3402 60.0048 88.0202ZM68.0448 88.0202C68.0448 87.0336 67.9782 86.2069 67.8448 85.5402C67.7248 84.8602 67.4715 84.3069 67.0848 83.8802C66.7115 83.4536 66.1515 83.2402 65.4048 83.2402C64.6582 83.2402 64.0915 83.4536 63.7048 83.8802C63.3315 84.3069 63.0782 84.8602 62.9448 85.5402C62.8248 86.2069 62.7648 87.0336 62.7648 88.0202C62.7648 89.0336 62.8248 89.8869 62.9448 90.5802C63.0648 91.2602 63.3182 91.8136 63.7048 92.2402C64.0915 92.6536 64.6582 92.8602 65.4048 92.8602C66.1515 92.8602 66.7182 92.6536 67.1048 92.2402C67.4915 91.8136 67.7448 91.2602 67.8648 90.5802C67.9848 89.8869 68.0448 89.0336 68.0448 88.0202ZM73.8145 92.3402C75.0945 91.2736 76.1145 90.3869 76.8745 89.6802C77.6345 88.9602 78.2678 88.2136 78.7745 87.4402C79.2812 86.6669 79.5345 85.9069 79.5345 85.1602C79.5345 84.4802 79.3745 83.9469 79.0545 83.5602C78.7345 83.1736 78.2412 82.9802 77.5745 82.9802C76.9078 82.9802 76.3945 83.2069 76.0345 83.6602C75.6745 84.1002 75.4878 84.7069 75.4745 85.4802H72.7545C72.8078 83.8802 73.2812 82.6669 74.1745 81.8402C75.0812 81.0136 76.2278 80.6002 77.6145 80.6002C79.1345 80.6002 80.3012 81.0069 81.1145 81.8202C81.9278 82.6202 82.3345 83.6802 82.3345 85.0002C82.3345 86.0402 82.0545 87.0336 81.4945 87.9802C80.9345 88.9269 80.2945 89.7536 79.5745 90.4602C78.8545 91.1536 77.9145 91.9936 76.7545 92.9802H82.6545V95.3002H72.7745V93.2202L73.8145 92.3402ZM84.4589 84.7602C84.5256 83.4269 84.9922 82.4002 85.8589 81.6802C86.7389 80.9469 87.8922 80.5802 89.3189 80.5802C90.2922 80.5802 91.1256 80.7536 91.8189 81.1002C92.5122 81.4336 93.0322 81.8936 93.3789 82.4802C93.7389 83.0536 93.9189 83.7069 93.9189 84.4402C93.9189 85.2802 93.6989 85.9936 93.2589 86.5802C92.8322 87.1536 92.3189 87.5402 91.7189 87.7402V87.8202C92.4922 88.0602 93.0922 88.4869 93.5189 89.1002C93.9589 89.7136 94.1789 90.5002 94.1789 91.4602C94.1789 92.2602 93.9922 92.9736 93.6189 93.6002C93.2589 94.2269 92.7189 94.7202 91.9989 95.0802C91.2922 95.4269 90.4389 95.6002 89.4389 95.6002C87.9322 95.6002 86.7056 95.2202 85.7589 94.4602C84.8122 93.7002 84.3122 92.5802 84.2589 91.1002H86.9789C87.0056 91.7536 87.2256 92.2802 87.6389 92.6802C88.0656 93.0669 88.6456 93.2602 89.3789 93.2602C90.0589 93.2602 90.5789 93.0736 90.9389 92.7002C91.3122 92.3136 91.4989 91.8202 91.4989 91.2202C91.4989 90.4202 91.2456 89.8469 90.7389 89.5002C90.2322 89.1536 89.4456 88.9802 88.3789 88.9802H87.7989V86.6802H88.3789C90.2722 86.6802 91.2189 86.0469 91.2189 84.7802C91.2189 84.2069 91.0456 83.7602 90.6989 83.4402C90.3656 83.1202 89.8789 82.9602 89.2389 82.9602C88.6122 82.9602 88.1256 83.1336 87.7789 83.4802C87.4456 83.8136 87.2522 84.2402 87.1989 84.7602H84.4589Z" fill="white"/>
</svg>
